<?xml version="1.0" encoding="UTF-8" standalone="no"?>
<svg
   xmlns:dc="http://purl.org/dc/elements/1.1/"
   xmlns:cc="http://creativecommons.org/ns#"
   xmlns:rdf="http://www.w3.org/1999/02/22-rdf-syntax-ns#"
   xmlns:svg="http://www.w3.org/2000/svg"
   xmlns="http://www.w3.org/2000/svg"
   version="1.1"
   width="512"
   viewBox="0 0 512 512"
   height="512"
   enable-background="new 0 0 512 512">
  <metadata>
    <rdf:RDF>
      <cc:Work
         rdf:about="">
        <dc:format>image/svg+xml</dc:format>
        <dc:type
           rdf:resource="http://purl.org/dc/dcmitype/StillImage" />
        <dc:title></dc:title>
      </cc:Work>
    </rdf:RDF>
  </metadata>
  <defs
     id="defs3407" />
  <path
     id="path3337"
     fill="#e5e2e6"
     d="m72.531 7.494c-10.722 0-19.414 8.692-19.414 19.414v91.514h38.828v-91.514c0-10.722-8.692-19.414-19.414-19.414z" />
  <path
     id="path3339"
     fill="#d6d1d7"
     d="m72.531 7.494c-2.659 0-5.192.537-7.5 1.505 6.998 2.934 11.914 9.846 11.914 17.909v91.514h15v-91.514c0-10.722-8.692-19.414-19.414-19.414z" />
  <path
     id="path3341"
     fill="#b7afb9"
     d="m55.544 101.994h33.975c8.042 0 14.561 6.519 14.561 14.561v32.757h-63.097v-32.757c0-8.042 6.519-14.561 14.561-14.561z" />
  <path
     id="path3343"
     fill="#a79fa9"
     d="m89.518 101.994h-29.999c8.042 0 14.56 6.519 14.56 14.561v32.756h29.999v-32.756c.001-8.042-6.518-14.561-14.56-14.561z" />
  <path
     id="path3345"
     fill="#3567c3"
     d="m53.117 392.935h38.828v118.84h-38.828z" />
  <path
     id="path3347"
     fill="#2d56a1"
     d="m73.946 392.935h18v118.84h-18z" />
  <path
     id="path3349"
     fill="#fdc26b"
     d="m40.983 319.285h63.096v62.836c0 17.423-14.124 31.548-31.548 31.548-17.423 0-31.548-14.124-31.548-31.548z" />
  <path
     id="path3351"
     fill="#fcb54c"
     d="m74.08 319.285v62.836c0 11.994-6.693 22.424-16.548 27.76 4.461 2.416 9.57 3.788 14.999 3.788 17.423 0 31.548-14.124 31.548-31.548v-62.836z" />
  <path
     id="path3353"
     fill="#fdc26b"
     d="m72.531 342.944c-29.486 0-53.389-23.903-53.389-53.389v-138.281c0-8.042 6.519-14.561 14.561-14.561h77.656c8.042 0 14.561 6.519 14.561 14.561v138.281c0 29.486-23.903 53.389-53.389 53.389z" />
  <path
     id="path3355"
     fill="#fcb54c"
     d="m111.359 136.714h-29.999c8.042 0 14.56 6.519 14.56 14.561v138.281c0 24.276-16.208 44.754-38.389 51.237 4.76 1.391 9.79 2.151 14.999 2.151 29.486 0 53.389-23.903 53.389-53.389v-138.281c.001-8.041-6.518-14.56-14.56-14.56z" />
  <path
     id="path3357"
     fill="#e5e2e6"
     d="m255.994 7.494c-10.722 0-19.414 8.692-19.414 19.414v91.514h38.828v-91.514c0-10.722-8.692-19.414-19.414-19.414z" />
  <path
     id="path3359"
     fill="#d6d1d7"
     d="m255.994 7.494c-2.652 0-5.169.551-7.471 1.515 6.983 2.941 11.886 9.846 11.886 17.899v91.514h15v-91.514c-.001-10.722-8.693-19.414-19.415-19.414z" />
  <path
     id="path3361"
     fill="#b7afb9"
     d="m239.007 101.994h33.975c8.042 0 14.561 6.519 14.561 14.561v32.757h-63.096v-32.757c-.001-8.042 6.518-14.561 14.56-14.561z" />
  <path
     id="path3363"
     fill="#a79fa9"
     d="m272.982 101.994h-29.999c8.042 0 14.56 6.519 14.56 14.561v32.756h29.999v-32.756c0-8.042-6.519-14.561-14.56-14.561z" />
  <path
     id="path3365"
     fill="#3567c3"
     d="m236.58 392.935h38.828v118.84h-38.828z" />
  <path
     id="path3367"
     fill="#2d56a1"
     d="m257.243 392.935h18v118.84h-18z" />
  <path
     id="path3369"
     fill="#e5e2e6"
     d="m224.446 319.285h63.096v62.836c0 17.423-14.124 31.548-31.548 31.548-17.423 0-31.548-14.124-31.548-31.548z" />
  <path
     id="path3371"
     fill="#d6d1d7"
     d="m257.543 319.285v62.836c0 11.994-6.693 22.424-16.548 27.76 4.461 2.416 9.57 3.788 15 3.788 17.423 0 31.548-14.124 31.548-31.548v-62.836z" />
  <path
     id="path3373"
     fill="#e5e2e6"
     d="m255.994 342.944c-29.486 0-53.389-23.903-53.389-53.389v-138.281c0-8.042 6.519-14.561 14.561-14.561h77.656c8.042 0 14.561 6.519 14.561 14.561v138.281c0 29.486-23.903 53.389-53.389 53.389z" />
  <path
     id="path3375"
     fill="#d6d1d7"
     d="m294.822 136.714h-29.999c8.042 0 14.56 6.519 14.56 14.561v138.281c0 24.276-16.208 44.754-38.389 51.237 4.76 1.391 9.79 2.151 15 2.151 29.486 0 53.389-23.903 53.389-53.389v-138.281c0-8.041-6.519-14.56-14.561-14.56z" />
  <path
     id="path3377"
     fill="#fdc26b"
     d="m190.957 181.688h130.075" />
  <path
     id="path3379"
     fill="#e5e2e6"
     d="m439.457 7.494c-10.722 0-19.414 8.692-19.414 19.414v91.514h38.828v-91.514c0-10.722-8.692-19.414-19.414-19.414z" />
  <path
     id="path3381"
     fill="#d6d1d7"
     d="m439.457 7.494c-2.659 0-5.192.537-7.5 1.505 6.998 2.934 11.914 9.846 11.914 17.909v91.514h15v-91.514c0-10.722-8.692-19.414-19.414-19.414z" />
  <path
     id="path3383"
     fill="#b7afb9"
     d="m422.47 101.994h33.975c8.042 0 14.561 6.519 14.561 14.561v32.757h-63.096v-32.757c-.001-8.042 6.518-14.561 14.56-14.561z" />
  <path
     id="path3385"
     fill="#a79fa9"
     d="m456.445 101.994h-29c8.042 0 14.561 6.519 14.561 14.561v32.756h29v-32.756c-.001-8.042-6.52-14.561-14.561-14.561z" />
  <path
     id="path3387"
     fill="#3567c3"
     d="m420.043 392.935h38.828v118.84h-38.828z" />
  <path
     id="path3389"
     fill="#2d56a1"
     d="m440.872 392.935h18v118.84h-18z" />
  <path
     id="path3391"
     fill="#e5646e"
     d="m407.909 319.285h63.096v62.836c0 17.423-14.124 31.548-31.548 31.548-17.423 0-31.548-14.124-31.548-31.548z" />
  <path
     id="path3393"
     fill="#e04955"
     d="m441.006 319.285v62.836c0 11.994-6.693 22.423-16.548 27.76 4.461 2.416 9.57 3.788 15 3.788 17.423 0 31.548-14.124 31.548-31.548v-62.836z" />
  <path
     id="path3395"
     fill="#e5646e"
     d="m439.457 342.944c-29.486 0-53.389-23.903-53.389-53.389v-138.281c0-8.042 6.519-14.561 14.561-14.561h77.656c8.042 0 14.561 6.519 14.561 14.561v138.281c0 29.486-23.903 53.389-53.389 53.389z" />
  <path
     id="path3397"
     fill="#e04955"
     d="m478.285 136.714h-30c8.042 0 14.561 6.519 14.561 14.561v138.281c0 24.276-16.208 44.754-38.389 51.237 4.76 1.391 9.79 2.151 15 2.151 29.486 0 53.389-23.903 53.389-53.389v-138.281c0-8.041-6.519-14.56-14.561-14.56z" />
  <path
     id="path3399"
     d="m137.568 196.682c4.139 0 7.494-3.355 7.494-7.494s-3.355-7.494-7.494-7.494h-4.155v-30.42c0-12.089-9.779-21.934-21.842-22.049v-12.671c0-8.593-4.944-16.05-12.133-19.688v-14.208c0-4.139-3.355-7.494-7.494-7.494s-7.494 3.355-7.494 7.494v11.842h-23.839v-67.592c0-6.572 5.348-11.92 11.92-11.92s11.92 5.348 11.92 11.92v20.779c0 4.139 3.355 7.494 7.494 7.494s7.494-3.355 7.494-7.494v-20.779c0-14.837-12.071-26.908-26.908-26.908s-26.907 12.071-26.907 26.908v69.959c-7.19 3.638-12.134 11.094-12.134 19.688v12.671c-12.062.115-21.841 9.96-21.841 22.049v30.42h-4.155c-4.139 0-7.494 3.355-7.494 7.494s3.355 7.494 7.494 7.494h4.156v14.133h-4.156c-4.139 0-7.494 3.355-7.494 7.494s3.355 7.494 7.494 7.494h4.156v14.134h-4.156c-4.139 0-7.494 3.355-7.494 7.494s3.355 7.494 7.494 7.494h4.156v34.631c0 18.724 8.501 35.493 21.841 46.67v45.896c0 11.104 4.667 21.132 12.134 28.247v94.126c0 4.139 3.355 7.494 7.494 7.494s7.494-3.355 7.494-7.494v-85.201c3.76 1.208 7.764 1.868 11.92 1.868 4.157 0 8.16-.659 11.92-1.868v85.201c0 4.139 3.355 7.494 7.494 7.494s7.494-3.355 7.494-7.494v-94.127c7.466-7.115 12.133-17.143 12.133-28.247v-45.895c13.34-11.177 21.842-27.947 21.842-46.671v-34.631h4.155c4.139 0 7.494-3.355 7.494-7.494s-3.355-7.494-7.494-7.494h-4.155v-14.134h4.155c4.139 0 7.494-3.355 7.494-7.494s-3.355-7.494-7.494-7.494h-4.155v-14.133zm-89.091-67.462v-12.666c0-3.897 3.17-7.067 7.067-7.067h33.975c3.896 0 7.066 3.17 7.066 7.067v12.666zm-21.841 22.054c0-3.897 3.17-7.067 7.066-7.067h77.657c3.897 0 7.067 3.17 7.067 7.067v30.42h-91.79v-30.42zm69.949 230.847c0 13.263-10.791 24.054-24.054 24.054-13.264 0-24.055-10.791-24.055-24.054v-36.647c7.383 3.188 15.515 4.964 24.055 4.964s16.67-1.775 24.054-4.963zm21.842-92.566c0 25.306-20.589 45.895-45.895 45.895s-45.895-20.589-45.895-45.895v-34.631h91.79zm0-49.618h-91.79v-14.134h91.79zm0-29.122h-91.79v-14.133h91.79z" />
  <path
     id="path3401"
     d="m321.031 196.682c4.139 0 7.494-3.355 7.494-7.494s-3.355-7.494-7.494-7.494h-4.155v-30.42c0-12.089-9.779-21.933-21.841-22.049v-12.671c0-8.593-4.944-16.05-12.134-19.688v-69.958c.001-14.837-12.07-26.908-26.907-26.908s-26.908 12.071-26.908 26.908v69.959c-7.19 3.638-12.134 11.094-12.134 19.688v12.671c-12.062.116-21.841 9.96-21.841 22.049v30.42h-4.155c-4.139 0-7.494 3.355-7.494 7.494s3.355 7.494 7.494 7.494h4.155v14.133h-4.155c-4.139 0-7.494 3.355-7.494 7.494s3.355 7.494 7.494 7.494h4.155v14.134h-4.155c-4.139 0-7.494 3.355-7.494 7.494s3.355 7.494 7.494 7.494h4.155v34.631c0 18.724 8.501 35.493 21.841 46.67v45.896c0 11.104 4.667 21.132 12.134 28.247v94.126c0 4.139 3.355 7.494 7.494 7.494s7.494-3.355 7.494-7.494v-85.201c3.76 1.208 7.764 1.868 11.92 1.868s8.16-.659 11.92-1.868v85.201c0 4.139 3.355 7.494 7.494 7.494s7.494-3.355 7.494-7.494v-94.126c7.467-7.115 12.134-17.143 12.134-28.247v-45.896c13.339-11.177 21.841-27.947 21.841-46.67v-34.631h4.155c4.139 0 7.494-3.355 7.494-7.494s-3.355-7.494-7.494-7.494h-4.155v-14.134h4.155c4.139 0 7.494-3.355 7.494-7.494s-3.355-7.494-7.494-7.494h-4.155v-14.133h4.154zm-65.037-181.695c6.572 0 11.92 5.348 11.92 11.92v67.593h-23.841v-67.592c.001-6.573 5.349-11.921 11.921-11.921zm-45.895 136.287c0-3.897 3.17-7.067 7.067-7.067h21.34c4.139 0 7.494-3.355 7.494-7.494s-3.355-7.494-7.494-7.494h-6.567v-12.666c0-3.897 3.17-7.067 7.067-7.067h33.975c3.897 0 7.067 3.17 7.067 7.067v12.666h-6.569c-4.139 0-7.494 3.355-7.494 7.494s3.355 7.494 7.494 7.494h21.342c3.897 0 7.067 3.17 7.067 7.067v30.42h-91.79v-30.42zm69.95 230.847c0 13.263-10.791 24.054-24.055 24.054s-24.055-10.791-24.055-24.054v-36.647c7.383 3.188 15.515 4.964 24.055 4.964s16.671-1.775 24.055-4.964zm21.84-92.566c0 25.306-20.589 45.895-45.895 45.895s-45.895-20.589-45.895-45.895v-34.631h91.79zm0-49.618h-91.79v-14.134h91.79zm0-29.122h-91.79v-14.133h91.79z" />
  <path
     id="path3403"
     d="m504.495 225.802c4.139 0 7.494-3.355 7.494-7.494s-3.355-7.494-7.494-7.494h-4.156v-14.133h4.156c4.139 0 7.494-3.355 7.494-7.494s-3.355-7.494-7.494-7.494h-4.156v-30.42c0-12.089-9.778-21.934-21.841-22.049v-12.671c0-8.593-4.944-16.05-12.134-19.688v-69.957c0-14.837-12.07-26.908-26.907-26.908s-26.908 12.071-26.908 26.908v20.779c0 4.139 3.355 7.494 7.494 7.494s7.494-3.355 7.494-7.494v-20.779c0-6.572 5.348-11.92 11.92-11.92s11.92 5.348 11.92 11.92v67.592h-23.841v-11.843c0-4.139-3.355-7.494-7.494-7.494s-7.494 3.355-7.494 7.494v14.21c-7.19 3.638-12.133 11.094-12.133 19.688v12.671c-12.062.115-21.842 9.96-21.842 22.049v30.42h-4.155c-4.139 0-7.494 3.355-7.494 7.494s3.355 7.494 7.494 7.494h4.155v14.133h-4.155c-4.139 0-7.494 3.355-7.494 7.494s3.355 7.494 7.494 7.494h4.155v14.134h-4.155c-4.139 0-7.494 3.355-7.494 7.494s3.355 7.494 7.494 7.494h4.155v34.631c0 18.724 8.502 35.494 21.842 46.671v45.895c0 11.104 4.667 21.131 12.133 28.247v94.127c0 4.139 3.355 7.494 7.494 7.494s7.494-3.355 7.494-7.494v-85.201c3.76 1.209 7.764 1.868 11.92 1.868s8.16-.659 11.92-1.868v85.201c0 4.139 3.355 7.494 7.494 7.494s7.494-3.355 7.494-7.494v-94.126c7.467-7.115 12.134-17.143 12.134-28.247v-45.896c13.339-11.177 21.841-27.947 21.841-46.67v-34.631h4.156c4.139 0 7.494-3.355 7.494-7.494s-3.355-7.494-7.494-7.494h-4.156v-14.134h4.156zm-89.092-96.582v-12.666c0-3.897 3.17-7.067 7.066-7.067h33.975c3.897 0 7.067 3.17 7.067 7.067v12.666zm-21.841 22.054c0-3.897 3.17-7.067 7.067-7.067h77.657c3.896 0 7.066 3.17 7.066 7.067v30.42h-91.79zm0 45.408h91.79v14.133h-91.79zm69.949 185.439c0 13.263-10.791 24.054-24.055 24.054-13.263 0-24.054-10.791-24.054-24.054v-36.647c7.383 3.188 15.514 4.963 24.054 4.963s16.671-1.775 24.055-4.964zm21.841-92.566c0 25.306-20.589 45.895-45.895 45.895s-45.895-20.589-45.895-45.895v-34.631h91.79zm0-49.618h-91.79v-14.134h91.79z" />
</svg>
